# xmcd CD database file
#
# Track frame offsets:
#	150
#	24435
#	52580
#	74786
#	97984
#	117697
#	140225
#	161725
#	185388
#	203595
#	225473
#	240289
#
# Disc length: 3447 seconds
#
# Revision: 1
# Processed by: cddbd v1.5.2PL0 Copyright (c) Steve Scherf et al.
# Submitted via: CDex 1.51
#
DISCID=9f0d750c
DTITLE=Barbarito López - Puchunguito - Por 70 pa' bajo
DYEAR=2005
DGENRE=Salsa
TTITLE0=Sonero de Buenavista
TTITLE1=Vagando por el mundo
TTITLE2=Cara de lata
TTITLE3=Llegó lo más bravo
TTITLE4=Solito me dejó
TTITLE5=Regresé para estar a tu lado
TTITLE6=Mire vecina
TTITLE7=Julio el pianista
TTITLE8=Prendido como un farol
TTITLE9=El reloj
TTITLE10=Oiga mi amigo
TTITLE11=La ruñidera
EXTD=YEAR: 2005
EXTT0=
EXTT1=
EXTT2=
EXTT3=
EXTT4=
EXTT5=
EXTT6=
EXTT7=
EXTT8=
EXTT9=
EXTT10=
EXTT11=
PLAYORDER=
